<?xml version="1.0" encoding="utf-8"?>
<svg version="1.2" xmlns:xlink="http://www.w3.org/1999/xlink" width="400" height="400" viewBox="0, 0, 400,400" baseProfile="tiny-ps" xmlns="http://www.w3.org/2000/svg">
  <title>Outer Haven</title>
  <g id="svgg">
    <path id="path0" d="M126.863 210.100 C 124.137 214.517,123.305 217.875,123.061 225.436 C 122.934 229.376,122.659 233.680,122.449 235.000 C 121.927 238.286,121.880 273.720,122.398 274.238 C 123.181 275.021,123.326 279.286,122.646 281.573 C 121.537 285.301,121.753 287.718,123.300 288.890 C 126.836 291.569,132.927 292.792,136.113 291.463 C 136.821 291.167,138.043 290.805,138.830 290.658 C 142.410 289.988,144.472 285.462,145.237 276.600 C 146.194 265.510,146.395 258.631,145.815 256.800 C 144.747 253.426,144.284 248.609,144.219 240.200 C 144.161 232.555,144.061 231.440,143.111 227.800 C 142.491 225.425,141.887 221.572,141.624 218.316 C 141.381 215.300,141.031 212.023,140.846 211.035 C 140.566 209.536,140.617 209.209,141.155 209.065 C 141.510 208.970,138.620 208.872,134.733 208.846 L 127.665 208.800 126.863 210.100 M1.829 227.296 C 2.682 233.350,4.310 241.906,5.655 247.400 C 7.912 256.621,7.790 256.330,9.527 256.621 C 20.568 258.471,22.166 260.353,22.249 271.600 C 22.292 277.539,22.403 278.540,23.358 281.600 C 24.074 283.897,24.543 286.622,24.804 290.000 C 25.413 297.903,26.030 299.442,32.600 309.452 C 36.092 314.772,42.905 324.171,43.566 324.579 C 44.685 325.271,43.400 307.496,41.731 299.200 C 40.690 294.021,40.583 287.557,41.510 285.760 C 42.921 283.024,43.200 281.788,43.200 278.256 C 43.200 274.061,41.841 265.730,41.007 264.808 C 40.705 264.473,40.452 264.059,40.446 263.888 C 40.427 263.385,38.355 260.508,36.251 258.064 C 35.179 256.819,33.356 254.343,32.199 252.561 C 29.723 248.746,29.828 248.800,24.856 248.800 C 19.024 248.800,18.480 248.158,16.183 238.557 C 13.586 227.703,12.632 226.714,3.895 225.826 L 1.589 225.592 1.829 227.296 M304.709 243.500 C 304.320 243.943,304.010 245.374,303.864 247.400 C 303.737 249.160,303.512 252.153,303.364 254.051 L 303.093 257.502 304.804 259.358 C 305.745 260.378,306.984 261.321,307.557 261.453 C 309.523 261.904,314.384 264.422,314.804 265.207 C 315.035 265.639,315.737 266.257,316.365 266.582 C 316.993 266.906,317.619 267.623,317.758 268.174 C 317.896 268.726,318.369 269.369,318.808 269.604 C 319.247 269.839,320.122 271.168,320.751 272.557 C 323.168 277.886,328.938 277.689,331.456 272.191 C 331.977 271.052,332.762 269.796,333.202 269.399 C 334.239 268.459,334.208 267.826,333.050 266.273 C 332.527 265.573,331.871 264.280,331.592 263.400 C 331.313 262.520,330.552 261.021,329.901 260.068 C 329.250 259.116,328.545 257.709,328.333 256.943 C 327.973 255.637,325.133 252.400,324.348 252.400 C 323.443 252.400,314.763 247.759,312.800 246.226 C 308.334 242.737,306.054 241.969,304.709 243.500 M374.200 246.235 C 373.760 246.330,372.413 246.609,371.206 246.854 C 367.349 247.637,364.404 249.785,361.849 253.675 C 359.965 256.544,358.385 257.340,352.443 258.410 C 341.958 260.298,338.337 264.153,340.992 270.600 C 342.033 273.127,342.246 274.199,341.630 273.819 C 340.849 273.336,339.136 274.515,339.368 275.376 C 339.490 275.829,339.592 276.861,339.595 277.669 C 339.603 279.878,341.082 281.422,343.487 281.733 C 344.539 281.868,345.809 282.096,346.309 282.239 C 347.142 282.476,347.186 282.414,346.836 281.493 C 346.293 280.066,347.642 280.469,349.445 282.272 C 350.892 283.719,351.146 284.400,350.237 284.400 C 349.783 284.400,349.755 284.660,350.091 285.754 C 352.068 292.198,345.490 294.117,341.742 288.189 C 339.108 284.025,338.311 283.462,335.484 283.775 C 332.027 284.156,331.200 284.401,331.200 285.043 C 331.200 285.433,330.683 285.600,329.480 285.600 C 328.534 285.600,327.552 285.808,327.299 286.061 C 326.793 286.567,324.112 285.718,322.602 284.573 C 321.916 284.053,321.888 283.914,322.402 283.577 C 322.906 283.247,322.830 283.035,321.918 282.227 C 320.993 281.408,320.920 281.198,321.418 280.785 C 322.916 279.542,320.053 277.931,317.797 278.747 C 315.860 279.447,309.247 278.941,307.289 277.943 C 306.487 277.534,305.519 277.200,305.137 277.200 C 302.191 277.200,296.983 272.142,298.571 270.824 C 298.948 270.511,299.069 269.905,298.929 269.037 C 298.806 268.284,298.958 267.228,299.283 266.562 C 300.188 264.711,299.624 262.238,297.907 260.520 C 295.381 257.994,295.200 258.440,295.200 267.175 C 295.200 273.519,295.292 274.739,295.759 274.560 C 296.067 274.442,296.708 274.763,297.185 275.273 L 298.052 276.200 296.858 276.549 C 295.879 276.835,295.654 277.123,295.613 278.149 C 295.585 278.837,295.472 283.743,295.361 289.052 L 295.160 298.703 296.166 298.956 C 297.181 299.211,301.796 298.312,307.481 296.752 C 311.610 295.619,314.230 295.901,318.765 297.965 C 322.369 299.605,323.134 299.784,329.060 300.377 C 339.372 301.409,342.085 309.639,336.826 323.938 C 334.544 330.142,334.809 331.502,338.600 333.029 C 339.920 333.561,341.219 333.997,341.486 333.998 C 342.366 334.002,345.795 335.286,346.064 335.713 C 346.394 336.236,349.135 333.478,353.532 328.200 C 369.874 308.581,382.026 286.654,390.060 262.288 C 393.923 250.572,394.183 251.738,386.925 248.261 C 383.949 246.835,376.737 245.687,374.200 246.235 M277.011 253.976 C 276.612 254.860,275.997 255.678,275.643 255.794 C 274.745 256.091,273.192 259.906,273.265 261.637 C 273.298 262.428,273.186 263.299,273.016 263.574 C 271.890 265.395,272.704 277.246,274.134 279.867 C 275.320 282.038,276.400 286.019,276.400 288.214 C 276.400 290.608,277.332 293.413,277.992 293.005 C 278.488 292.698,278.556 253.665,278.061 252.885 C 277.834 252.527,277.515 252.858,277.011 253.976 M168.000 254.359 C 167.010 254.762,165.660 255.253,165.000 255.451 C 163.018 256.043,161.181 259.935,161.531 262.800 L 161.800 265.000 166.200 265.223 C 171.337 265.484,172.965 265.954,176.116 268.085 C 186.380 275.027,189.081 271.665,183.093 259.400 C 180.587 254.267,173.796 251.999,168.000 254.359 M206.951 254.539 C 205.018 255.080,204.160 255.729,203.374 257.251 C 201.459 260.953,208.321 264.704,212.588 262.287 C 219.487 258.380,215.047 252.277,206.951 254.539 M66.117 263.888 C 63.318 266.577,63.202 271.237,65.802 276.540 C 67.943 280.909,68.066 282.950,66.418 286.821 C 65.036 290.070,64.996 290.280,64.405 297.600 C 64.031 302.234,63.666 304.037,62.140 308.800 C 58.922 318.840,61.697 322.006,73.614 321.890 C 83.564 321.793,86.702 323.475,88.811 330.034 C 91.920 339.702,84.922 346.817,70.612 348.537 L 66.623 349.016 70.191 352.135 C 78.880 359.732,102.594 376.000,104.979 376.000 C 105.101 376.000,105.170 351.655,105.133 321.900 C 105.096 292.145,104.997 268.445,104.913 269.233 L 104.760 270.665 101.665 270.486 C 99.058 270.335,98.322 270.440,96.991 271.154 C 92.932 273.329,90.150 272.496,83.572 267.136 C 81.537 265.477,74.143 262.970,70.017 262.539 C 67.812 262.308,67.732 262.336,66.117 263.888 M248.125 268.056 C 247.265 269.235,246.180 271.132,245.715 272.270 C 245.250 273.409,244.136 275.334,243.239 276.547 C 239.120 282.123,239.368 282.931,247.400 290.042 C 253.335 295.297,259.998 295.826,260.631 291.092 C 260.697 290.601,261.121 288.897,261.575 287.305 C 263.232 281.489,262.544 278.419,258.044 271.556 C 254.133 265.592,250.786 264.411,248.125 268.056 M349.000 267.799 C 353.053 268.247,354.710 270.043,353.925 273.136 C 353.433 275.076,352.250 275.625,350.229 274.852 C 349.109 274.424,348.926 274.473,348.168 275.413 L 347.335 276.444 346.304 274.885 C 344.299 271.856,344.074 266.844,345.965 267.361 C 346.314 267.456,347.680 267.654,349.000 267.799 M212.846 270.870 C 212.007 271.447,210.940 272.868,210.035 274.613 C 206.328 281.769,204.939 282.144,197.600 277.969 C 190.863 274.135,188.716 274.542,187.972 279.794 C 186.582 289.610,178.654 293.183,170.296 287.760 C 167.104 285.688,161.665 286.491,161.002 289.133 C 160.861 289.696,160.218 290.758,159.573 291.492 C 158.928 292.227,158.400 293.250,158.400 293.766 C 158.400 299.347,153.313 307.298,150.200 306.583 C 147.366 305.932,135.023 305.939,130.485 306.593 C 125.097 307.371,122.528 307.140,122.277 305.858 C 122.184 305.386,122.087 316.610,122.061 330.800 C 122.032 345.812,122.160 356.367,122.365 356.043 C 123.231 354.675,135.666 356.202,139.800 358.184 C 150.054 363.101,139.581 373.047,128.200 369.200 C 126.247 368.540,124.054 368.000,123.325 368.000 L 122.000 368.000 122.000 376.172 L 122.000 384.344 127.100 386.323 C 149.906 395.177,171.649 399.377,197.290 399.881 C 210.532 400.141,210.045 400.231,210.761 397.388 C 211.009 396.405,211.400 395.600,211.629 395.600 C 211.859 395.600,211.936 395.420,211.800 395.200 C 211.664 394.980,211.754 394.800,212.000 394.800 C 212.246 394.800,212.336 394.620,212.200 394.400 C 212.064 394.180,212.173 394.000,212.443 394.000 C 212.713 394.000,212.824 393.890,212.689 393.756 C 212.555 393.622,212.855 392.857,213.356 392.056 C 216.502 387.022,216.777 385.461,215.431 380.282 C 214.050 374.966,213.599 360.062,214.612 353.200 C 214.986 350.670,215.381 346.020,215.491 342.866 C 215.712 336.528,215.904 337.354,212.508 330.051 C 211.549 327.989,210.861 326.206,210.979 326.088 C 211.097 325.970,211.031 325.677,210.832 325.437 C 210.292 324.783,209.352 320.807,208.413 315.200 C 207.952 312.450,207.384 309.094,207.150 307.743 C 205.868 300.320,208.819 297.375,216.501 298.408 C 229.428 300.147,232.302 298.804,232.942 290.726 C 233.242 286.936,234.044 284.852,235.828 283.229 C 237.930 281.316,237.568 279.412,234.836 278.018 C 233.990 277.587,233.196 276.966,233.070 276.638 C 232.944 276.310,232.067 275.838,231.121 275.588 C 230.174 275.339,228.981 274.866,228.469 274.538 C 226.890 273.525,221.924 271.540,219.400 270.913 C 215.149 269.856,214.329 269.851,212.846 270.870 M86.435 296.112 C 89.602 298.246,89.482 302.800,86.259 302.800 C 83.037 302.800,81.121 298.442,83.360 296.204 C 84.588 294.975,84.742 294.971,86.435 296.112 M150.411 317.493 C 150.955 317.874,151.705 318.135,152.077 318.072 C 153.683 317.801,155.434 324.368,154.438 326.927 L 153.999 328.054 152.769 327.178 C 151.859 326.530,151.421 326.419,151.089 326.751 C 150.358 327.482,149.816 327.274,149.042 325.964 C 148.641 325.284,147.779 324.542,147.127 324.315 C 144.558 323.419,144.436 318.400,146.984 318.400 C 147.437 318.400,148.032 318.040,148.307 317.600 C 148.917 316.623,149.152 316.611,150.411 317.493 M324.497 333.990 C 320.707 335.711,319.794 336.782,319.034 340.400 C 318.414 343.349,316.657 343.903,316.215 341.289 C 315.780 338.716,314.565 337.075,313.280 337.324 C 312.612 337.453,311.937 337.297,311.510 336.914 C 310.880 336.348,310.789 336.376,310.451 337.247 C 308.849 341.379,308.220 342.814,307.376 344.266 C 306.118 346.428,305.572 350.285,306.083 353.400 C 306.703 357.172,306.130 368.789,305.278 369.751 C 304.535 370.590,305.603 369.969,310.400 366.774 C 314.359 364.138,314.288 364.250,314.573 360.200 C 315.007 354.032,315.163 353.324,316.382 352.019 C 318.236 350.035,319.636 350.305,320.529 352.819 C 321.063 354.322,321.521 354.935,322.323 355.219 C 322.915 355.429,323.708 355.778,324.086 355.995 C 324.604 356.292,325.008 356.170,325.743 355.494 C 326.748 354.569,329.380 352.426,330.157 351.900 C 330.481 351.681,330.480 351.519,330.153 351.300 C 328.904 350.461,327.450 341.888,327.826 337.575 C 328.198 333.312,327.544 332.608,324.497 333.990 M257.325 350.198 C 254.538 352.150,252.556 358.837,253.016 364.736 C 253.967 376.941,247.882 387.439,245.157 378.295 C 244.305 375.436,243.133 373.600,242.161 373.600 C 240.841 373.600,237.670 380.278,238.143 382.064 C 238.519 383.485,240.889 386.045,241.800 386.015 C 244.691 385.919,246.385 385.478,246.612 384.761 C 246.745 384.342,246.977 384.002,247.127 384.004 C 248.162 384.021,251.515 385.357,252.247 386.044 C 253.047 386.795,253.524 386.865,256.985 386.740 L 260.833 386.600 262.202 385.000 C 263.819 383.109,263.907 382.210,262.701 379.912 C 261.737 378.078,261.609 374.970,262.078 364.800 C 262.260 360.853,262.053 358.864,260.835 352.840 C 260.180 349.602,259.213 348.875,257.325 350.198 M272.529 369.735 C 271.592 370.936,269.363 382.202,269.754 383.761 C 270.134 385.274,271.883 386.993,272.517 386.476 C 272.783 386.260,273.759 385.857,274.687 385.582 C 275.615 385.307,276.287 384.940,276.180 384.768 C 276.074 384.595,276.484 384.397,277.093 384.327 L 278.200 384.200 278.250 379.400 C 278.278 376.760,278.187 375.320,278.049 376.200 C 277.742 378.151,277.438 377.581,276.561 373.412 C 275.699 369.319,274.036 367.802,272.529 369.735 " stroke="none" fill="#27323e" fill-rule="evenodd"></path>
    <path id="path1" d="M129.800 175.220 C 129.140 175.436,127.160 176.375,125.400 177.306 L 122.200 179.000 122.090 185.100 L 121.979 191.200 135.349 191.200 L 148.718 191.200 147.940 188.100 C 147.511 186.395,146.890 184.413,146.560 183.696 C 146.229 182.978,146.068 182.213,146.203 181.996 C 146.337 181.778,146.137 181.600,145.757 181.600 C 145.377 181.600,145.183 181.483,145.326 181.340 C 147.197 179.470,133.416 174.037,129.800 175.220 M95.087 192.212 C 94.254 192.517,92.544 193.304,91.287 193.959 C 88.199 195.569,84.022 197.407,82.695 197.740 C 82.098 197.890,81.305 198.505,80.931 199.106 C 80.558 199.708,79.957 200.560,79.596 201.000 C 78.603 202.211,77.650 205.862,77.370 209.534 C 76.747 217.701,67.619 223.573,56.900 222.704 C 55.560 222.596,54.795 222.691,54.787 222.967 C 54.779 223.205,54.433 222.992,54.017 222.493 C 53.344 221.686,53.246 221.664,53.125 222.293 C 53.021 222.833,52.777 222.658,52.094 221.553 C 51.127 219.987,50.964 219.200,51.608 219.200 C 51.840 219.200,51.910 218.781,51.771 218.226 C 51.511 217.190,52.027 216.497,56.222 212.248 C 59.743 208.680,61.492 202.523,59.569 200.458 C 58.273 199.068,56.852 199.483,53.591 202.207 C 51.606 203.866,49.117 205.189,46.168 206.154 C 44.263 206.778,42.400 208.476,42.400 209.589 C 42.400 209.821,42.241 210.323,42.047 210.705 C 40.844 213.069,40.594 214.530,40.693 218.592 C 40.725 219.907,40.944 221.048,41.178 221.126 C 41.413 221.204,41.503 221.433,41.379 221.634 C 41.255 221.835,41.478 222.014,41.876 222.032 C 42.324 222.051,42.403 222.142,42.083 222.271 C 41.364 222.559,43.240 224.156,46.000 225.606 C 47.210 226.241,48.055 226.770,47.877 226.781 C 47.700 226.791,47.840 227.295,48.189 227.900 C 48.743 228.859,50.613 233.960,53.826 243.272 C 56.432 250.827,54.904 264.400,51.446 264.400 C 50.567 264.400,47.307 262.599,46.400 261.612 C 46.070 261.253,45.130 260.552,44.312 260.054 C 42.491 258.947,39.642 255.794,39.112 254.300 C 38.897 253.695,38.529 253.200,38.294 253.200 C 38.059 253.200,37.985 253.082,38.130 252.937 C 38.275 252.792,38.210 252.453,37.987 252.184 C 37.599 251.716,36.469 247.880,36.224 246.200 C 35.709 242.656,33.632 241.334,28.000 240.966 C 20.730 240.490,20.057 239.765,16.627 228.730 C 14.532 221.993,13.443 221.129,5.830 220.172 C 3.300 219.853,1.315 219.407,1.114 219.111 C 0.791 218.635,0.895 220.157,1.453 224.080 C 1.656 225.504,1.735 225.569,3.532 225.788 C 12.995 226.938,13.534 227.487,16.214 238.685 C 18.477 248.144,19.037 248.800,24.856 248.800 C 29.828 248.800,29.723 248.746,32.199 252.561 C 33.356 254.343,35.179 256.819,36.251 258.064 C 38.354 260.506,40.263 263.157,40.383 263.800 C 40.424 264.020,40.705 264.473,41.007 264.808 C 41.841 265.730,43.200 274.061,43.200 278.256 C 43.200 281.788,42.921 283.024,41.510 285.760 C 40.583 287.557,40.690 294.021,41.731 299.200 C 43.240 306.702,43.588 309.914,43.722 317.613 C 43.790 321.470,44.000 324.890,44.190 325.213 C 44.379 325.536,45.066 326.483,45.715 327.319 L 46.897 328.837 48.111 325.319 C 48.778 323.383,49.466 321.706,49.638 321.591 C 49.810 321.477,50.036 320.937,50.139 320.391 C 50.242 319.846,50.523 318.893,50.763 318.274 C 51.357 316.743,51.312 314.469,50.637 311.877 C 49.650 308.089,48.985 297.993,49.554 295.450 C 51.338 287.479,56.999 290.728,56.860 299.644 C 56.819 302.312,56.527 303.691,54.635 310.154 C 51.802 319.831,56.081 323.315,71.600 323.970 C 79.159 324.289,80.455 324.504,83.000 325.861 C 88.241 328.657,88.557 336.522,83.650 342.028 C 80.184 345.916,76.900 347.101,69.110 347.275 L 64.821 347.370 65.616 348.217 C 67.012 349.703,78.038 347.923,82.095 345.558 C 91.458 340.100,91.913 327.343,82.904 322.935 C 80.657 321.836,80.539 321.823,73.614 321.890 C 61.697 322.006,58.922 318.840,62.140 308.800 C 63.666 304.037,64.031 302.234,64.405 297.600 C 64.996 290.280,65.036 290.070,66.418 286.821 C 68.066 282.950,67.943 280.909,65.802 276.540 C 62.129 269.048,64.269 261.938,70.017 262.539 C 74.143 262.970,81.537 265.477,83.572 267.136 C 90.150 272.496,92.932 273.329,96.991 271.154 C 98.319 270.442,99.059 270.335,101.638 270.485 L 104.705 270.662 104.949 268.631 C 105.685 262.507,105.208 193.501,104.437 194.454 L 103.673 195.397 103.887 194.198 C 104.059 193.232,104.000 193.094,103.585 193.485 C 103.178 193.869,102.790 193.723,101.721 192.785 C 100.180 191.431,97.778 191.224,95.087 192.212 M122.056 222.900 C 122.116 237.866,122.604 239.104,123.055 225.436 C 123.305 217.876,124.140 214.511,126.863 210.100 L 127.665 208.800 124.833 208.800 L 122.000 208.800 122.056 222.900 M141.155 209.060 C 140.618 209.208,140.566 209.537,140.846 211.035 C 141.031 212.023,141.381 215.300,141.624 218.316 C 141.887 221.572,142.491 225.425,143.111 227.800 C 144.061 231.440,144.161 232.555,144.219 240.200 C 144.284 248.609,144.747 253.426,145.815 256.800 C 146.395 258.631,146.194 265.510,145.237 276.600 C 144.472 285.462,142.410 289.988,138.830 290.658 C 138.043 290.805,136.821 291.167,136.113 291.463 C 132.927 292.792,126.836 291.569,123.300 288.890 L 122.000 287.905 122.000 296.103 C 122.000 308.215,121.712 307.859,130.485 306.593 C 135.023 305.939,147.366 305.932,150.200 306.583 C 153.313 307.298,158.400 299.347,158.400 293.766 C 158.400 293.250,158.928 292.227,159.573 291.492 C 160.218 290.758,160.861 289.696,161.002 289.133 C 161.665 286.491,167.104 285.688,170.296 287.760 C 178.654 293.183,186.582 289.610,187.972 279.794 C 188.716 274.542,190.863 274.135,197.600 277.969 C 204.939 282.144,206.328 281.769,210.035 274.613 C 211.789 271.229,213.505 269.845,215.600 270.128 C 219.348 270.632,225.857 272.863,228.469 274.538 C 228.981 274.866,230.174 275.339,231.121 275.588 C 232.067 275.838,232.944 276.310,233.070 276.638 C 233.196 276.966,233.990 277.587,234.836 278.018 C 237.568 279.412,237.930 281.316,235.828 283.229 C 234.044 284.852,233.242 286.936,232.942 290.726 C 232.302 298.804,229.428 300.147,216.501 298.408 C 208.819 297.375,205.868 300.320,207.150 307.743 C 207.384 309.094,207.952 312.450,208.413 315.200 C 209.352 320.807,210.292 324.783,210.832 325.437 C 211.031 325.677,211.097 325.970,210.979 326.088 C 210.861 326.206,211.549 327.989,212.508 330.051 C 215.904 337.354,215.712 336.528,215.491 342.866 C 215.381 346.020,214.986 350.670,214.612 353.200 C 213.599 360.062,214.050 374.966,215.431 380.282 C 216.777 385.461,216.502 387.022,213.356 392.056 C 212.855 392.857,212.555 393.622,212.689 393.756 C 212.824 393.890,212.713 394.000,212.443 394.000 C 212.173 394.000,212.064 394.180,212.200 394.400 C 212.336 394.620,212.246 394.800,212.000 394.800 C 211.754 394.800,211.664 394.980,211.800 395.200 C 211.936 395.420,211.864 395.600,211.639 395.600 C 211.415 395.600,211.026 396.365,210.776 397.300 C 210.526 398.235,210.114 399.260,209.861 399.577 C 209.607 399.894,209.586 400.042,209.814 399.907 C 210.041 399.771,211.431 399.606,212.903 399.539 C 214.478 399.469,215.432 399.272,215.221 399.061 C 213.991 397.831,217.324 394.404,221.294 392.816 C 228.645 389.876,231.665 389.615,240.200 391.185 C 241.300 391.387,245.035 391.563,248.500 391.576 C 253.257 391.594,254.801 391.722,254.806 392.100 C 254.811 392.464,254.907 392.450,255.160 392.051 C 255.351 391.749,255.753 391.585,256.054 391.686 C 256.675 391.896,260.946 390.638,267.456 388.329 L 271.912 386.748 270.972 385.808 C 269.432 384.268,269.389 383.102,270.638 376.661 C 272.454 367.297,274.995 365.970,276.590 373.553 C 278.208 381.243,278.474 377.657,278.320 350.211 L 278.200 328.622 276.400 328.301 C 275.296 328.104,273.595 328.163,272.000 328.453 C 270.570 328.714,265.710 328.947,261.200 328.971 C 256.606 328.997,252.736 329.189,252.400 329.408 C 252.070 329.624,248.565 329.814,244.600 329.832 C 239.546 329.854,236.566 330.054,234.600 330.502 C 231.664 331.172,229.862 331.032,226.600 329.884 C 225.720 329.574,223.683 329.001,222.073 328.611 C 215.504 327.017,212.000 321.170,212.000 311.805 C 212.000 305.176,213.291 304.332,224.000 303.959 C 231.855 303.685,233.385 303.436,238.147 301.654 C 241.016 300.581,243.400 300.578,248.537 301.641 C 254.152 302.802,258.067 302.537,264.077 300.588 C 268.799 299.057,272.121 298.900,276.918 299.981 L 278.400 300.316 278.400 296.534 C 278.400 294.063,278.258 292.840,277.992 293.005 C 277.332 293.413,276.400 290.608,276.400 288.214 C 276.400 286.019,275.320 282.038,274.134 279.867 C 272.704 277.246,271.890 265.395,273.016 263.574 C 273.186 263.299,273.298 262.428,273.265 261.637 C 273.192 259.906,274.745 256.091,275.643 255.794 C 275.997 255.678,276.612 254.860,277.011 253.976 C 277.518 252.852,277.834 252.525,278.066 252.885 C 278.248 253.168,278.352 249.171,278.298 244.003 L 278.200 234.606 276.600 233.719 C 267.787 228.834,265.177 229.432,259.035 237.742 C 257.001 240.494,255.079 240.829,252.458 238.888 C 249.997 237.067,249.749 235.512,250.850 228.800 C 251.472 225.008,250.059 215.680,248.345 212.266 C 246.695 208.975,243.934 207.763,241.295 209.170 C 235.477 212.273,229.816 212.672,225.286 210.300 C 222.531 208.857,215.107 207.847,217.200 209.200 C 217.732 209.544,217.501 209.766,216.724 209.655 C 216.573 209.634,216.336 209.973,216.197 210.408 C 216.059 210.844,215.787 211.200,215.593 211.200 C 215.399 211.200,214.515 212.595,213.628 214.300 C 210.039 221.197,207.557 222.698,200.200 222.417 C 197.560 222.316,193.909 222.237,192.086 222.242 C 189.244 222.249,188.806 222.161,189.012 221.625 C 189.435 220.523,189.606 211.817,189.231 210.508 C 188.977 209.621,189.007 209.187,189.334 209.054 C 189.590 208.949,184.940 208.862,179.000 208.860 C 172.627 208.858,168.528 208.997,169.000 209.200 C 169.440 209.389,169.591 209.556,169.335 209.572 C 169.079 209.587,167.489 210.932,165.802 212.560 C 164.114 214.189,161.855 215.977,160.780 216.534 L 158.827 217.548 157.839 216.374 C 157.296 215.728,156.699 215.200,156.512 215.200 C 156.029 215.200,154.710 212.924,153.966 210.805 L 153.332 209.000 147.566 208.941 C 144.395 208.909,141.510 208.962,141.155 209.060 M187.330 222.841 C 188.346 223.304,189.188 225.388,189.414 228.000 C 189.481 228.770,189.657 230.580,189.805 232.022 C 190.196 235.809,189.492 237.331,187.068 237.941 C 180.319 239.641,174.130 235.919,175.385 230.916 C 175.772 229.374,181.498 224.000,182.754 224.000 C 183.151 224.000,183.802 223.640,184.200 223.200 C 185.016 222.298,185.913 222.195,187.330 222.841 M297.831 228.048 C 295.049 228.701,295.200 227.759,295.200 244.412 C 295.200 258.619,295.242 259.514,295.901 259.342 C 298.044 258.781,300.511 264.049,299.283 266.562 C 298.958 267.228,298.806 268.284,298.929 269.037 C 299.069 269.905,298.948 270.511,298.571 270.824 C 296.983 272.142,302.191 277.200,305.137 277.200 C 305.519 277.200,306.487 277.534,307.289 277.943 C 309.247 278.941,315.860 279.447,317.797 278.747 C 320.053 277.931,322.916 279.542,321.418 280.785 C 320.920 281.198,320.993 281.408,321.918 282.227 C 322.830 283.035,322.906 283.247,322.402 283.577 C 321.888 283.914,321.916 284.053,322.602 284.573 C 324.112 285.718,326.793 286.567,327.299 286.061 C 327.552 285.808,328.534 285.600,329.480 285.600 C 330.683 285.600,331.200 285.433,331.200 285.043 C 331.200 284.401,332.027 284.156,335.484 283.775 C 338.311 283.462,339.108 284.025,341.742 288.189 C 345.490 294.117,352.068 292.198,350.091 285.754 C 349.755 284.660,349.783 284.400,350.237 284.400 C 351.146 284.400,350.892 283.719,349.445 282.272 C 347.642 280.469,346.293 280.066,346.836 281.493 C 347.186 282.414,347.142 282.476,346.309 282.239 C 345.809 282.096,344.539 281.868,343.487 281.733 C 341.082 281.422,339.603 279.878,339.595 277.669 C 339.592 276.861,339.490 275.829,339.368 275.376 C 339.136 274.515,340.849 273.336,341.630 273.819 C 342.246 274.199,342.033 273.127,340.992 270.600 C 338.337 264.153,341.958 260.298,352.443 258.410 C 358.385 257.340,359.965 256.544,361.849 253.675 C 365.369 248.314,369.679 246.183,376.824 246.270 C 382.431 246.338,384.908 247.051,391.100 250.377 C 392.255 250.997,393.223 251.436,393.250 251.352 C 393.278 251.269,393.335 251.065,393.378 250.900 C 393.421 250.735,393.680 249.816,393.955 248.858 C 394.636 246.477,394.486 246.273,391.138 245.032 C 383.339 242.141,366.105 241.468,358.818 243.771 C 353.938 245.312,348.202 244.999,346.785 243.114 C 346.445 242.661,339.928 239.725,338.600 239.426 C 337.940 239.278,335.780 238.893,333.800 238.571 C 327.520 237.550,326.121 236.937,320.441 232.707 C 314.523 228.300,305.067 226.351,297.831 228.048 M309.200 243.655 C 309.970 244.124,311.590 245.281,312.800 246.226 C 314.763 247.759,323.443 252.400,324.348 252.400 C 325.133 252.400,327.973 255.637,328.333 256.943 C 328.545 257.709,329.250 259.116,329.901 260.068 C 330.552 261.021,331.313 262.520,331.592 263.400 C 331.871 264.280,332.527 265.573,333.050 266.273 C 334.208 267.826,334.239 268.459,333.202 269.399 C 332.762 269.796,331.977 271.052,331.456 272.191 C 328.938 277.689,323.168 277.886,320.751 272.557 C 320.122 271.168,319.247 269.839,318.808 269.604 C 318.369 269.369,317.896 268.726,317.758 268.174 C 317.619 267.623,316.993 266.906,316.365 266.582 C 315.737 266.257,315.035 265.639,314.804 265.207 C 314.384 264.422,309.523 261.904,307.557 261.453 C 306.984 261.321,305.745 260.378,304.804 259.358 L 303.093 257.502 303.364 254.051 C 303.512 252.153,303.737 249.160,303.864 247.400 C 304.197 242.762,305.839 241.610,309.200 243.655 M178.313 254.563 C 181.743 256.313,182.821 257.966,185.426 265.470 C 188.007 272.904,184.640 273.850,176.116 268.085 C 172.965 265.954,171.337 265.484,166.200 265.223 L 161.800 265.000 161.531 262.800 C 161.181 259.935,163.018 256.043,165.000 255.451 C 165.660 255.253,167.010 254.762,168.000 254.359 C 170.794 253.221,175.881 253.322,178.313 254.563 M214.200 254.917 C 217.996 257.060,214.585 263.192,209.600 263.185 C 207.052 263.181,202.800 260.408,202.800 258.749 C 202.800 255.058,210.103 252.603,214.200 254.917 M8.180 256.897 C 10.165 263.250,10.454 263.911,11.169 263.724 C 12.014 263.503,14.688 264.770,15.672 265.858 C 17.058 267.390,17.354 268.940,17.420 275.000 C 17.456 278.300,17.575 281.450,17.683 282.000 C 17.926 283.232,23.966 295.352,24.424 295.526 C 24.606 295.595,24.963 296.282,25.217 297.053 C 25.472 297.823,25.770 298.364,25.880 298.254 C 25.990 298.144,25.888 297.457,25.654 296.727 C 25.419 295.997,25.046 293.060,24.824 290.200 C 24.546 286.635,24.086 283.931,23.358 281.600 C 22.403 278.540,22.292 277.541,22.249 271.600 C 22.166 260.445,20.345 258.273,9.711 256.652 C 8.449 256.459,8.063 256.521,8.180 256.897 M254.156 267.060 C 255.132 267.525,256.243 268.810,258.044 271.556 C 262.544 278.419,263.232 281.489,261.575 287.305 C 261.121 288.897,260.697 290.601,260.631 291.092 C 259.998 295.826,253.335 295.297,247.400 290.042 C 239.368 282.931,239.120 282.123,243.239 276.547 C 244.136 275.334,245.250 273.409,245.715 272.270 C 248.095 266.444,250.174 265.161,254.156 267.060 M344.874 268.710 C 344.320 270.559,344.793 272.602,346.304 274.885 L 347.335 276.444 348.168 275.413 C 348.926 274.473,349.109 274.424,350.229 274.852 C 352.250 275.625,353.433 275.076,353.925 273.136 C 354.710 270.043,353.053 268.247,349.000 267.799 C 347.680 267.654,346.314 267.456,345.965 267.361 C 345.514 267.238,345.199 267.627,344.874 268.710 M122.027 278.620 L 122.054 283.400 122.646 281.600 C 123.289 279.646,123.138 274.978,122.408 274.248 C 122.131 273.971,122.009 275.368,122.027 278.620 M295.467 274.667 C 295.320 274.813,295.211 276.208,295.225 277.767 C 295.245 279.940,295.338 280.383,295.625 279.667 C 295.830 279.154,295.897 278.328,295.772 277.833 C 295.585 277.086,295.761 276.869,296.799 276.566 L 298.052 276.200 297.210 275.300 C 296.336 274.365,295.920 274.214,295.467 274.667 M83.360 296.204 C 81.121 298.442,83.037 302.800,86.259 302.800 C 89.482 302.800,89.602 298.246,86.435 296.112 C 84.742 294.971,84.588 294.975,83.360 296.204 M304.600 297.444 C 301.740 298.221,298.455 298.882,297.300 298.915 L 295.200 298.974 295.200 301.287 L 295.200 303.600 297.900 303.594 C 299.385 303.590,302.292 303.230,304.361 302.794 C 309.347 301.741,312.660 301.788,317.341 302.975 C 319.455 303.511,322.493 304.069,324.092 304.213 C 332.892 305.010,335.457 307.277,335.118 313.958 C 334.629 323.598,329.685 326.582,313.200 327.186 C 308.910 327.343,305.040 327.617,304.600 327.795 C 303.195 328.363,301.200 330.021,301.200 330.620 C 301.200 330.939,301.030 331.200,300.823 331.200 C 300.380 331.200,300.501 331.938,301.347 334.402 C 302.833 338.731,301.165 342.425,297.278 343.412 L 295.400 343.888 295.295 359.744 C 295.189 375.923,295.246 376.589,296.620 375.222 C 296.829 375.014,298.080 374.274,299.400 373.578 C 300.720 372.882,302.726 371.621,303.857 370.775 L 305.915 369.238 306.217 363.319 C 306.396 359.809,306.357 356.072,306.121 354.136 C 305.625 350.069,306.077 346.497,307.370 344.275 C 308.220 342.815,308.848 341.382,310.451 337.247 C 310.789 336.376,310.880 336.348,311.510 336.914 C 311.937 337.297,312.612 337.453,313.280 337.324 C 314.565 337.075,315.780 338.716,316.215 341.289 C 316.658 343.909,318.421 343.349,319.014 340.400 C 319.720 336.888,321.023 335.426,324.878 333.822 C 327.537 332.717,328.254 333.696,327.812 337.829 C 327.419 341.498,328.938 350.506,330.073 351.236 C 330.491 351.505,331.095 351.013,337.558 345.130 C 341.717 341.345,347.822 334.935,346.500 335.742 C 346.225 335.910,346.000 335.884,346.000 335.684 C 346.000 335.337,342.400 334.002,341.454 333.998 C 341.204 333.997,339.920 333.561,338.600 333.029 C 334.809 331.502,334.544 330.142,336.826 323.938 C 342.085 309.639,339.372 301.409,329.060 300.377 C 323.127 299.784,322.369 299.605,318.716 297.942 C 313.743 295.678,311.409 295.596,304.600 297.444 M148.307 317.600 C 148.032 318.040,147.437 318.400,146.984 318.400 C 144.436 318.400,144.558 323.419,147.127 324.315 C 147.779 324.542,148.641 325.284,149.042 325.964 C 149.816 327.274,150.358 327.482,151.089 326.751 C 151.421 326.419,151.859 326.530,152.769 327.178 L 153.999 328.054 154.438 326.927 C 155.434 324.368,153.683 317.801,152.077 318.072 C 151.705 318.135,150.955 317.874,150.411 317.493 C 149.152 316.611,148.917 316.623,148.307 317.600 M246.583 339.370 C 250.334 340.074,251.519 345.969,248.750 350.150 C 246.686 353.266,238.004 356.455,234.017 355.560 C 228.879 354.408,227.260 342.846,231.811 339.808 C 233.061 338.973,242.911 338.682,246.583 339.370 M259.950 350.140 C 260.196 350.436,260.594 351.651,260.835 352.840 C 262.053 358.864,262.260 360.853,262.078 364.800 C 261.609 374.970,261.737 378.078,262.701 379.912 C 263.907 382.210,263.819 383.109,262.202 385.000 L 260.833 386.600 256.985 386.740 C 253.524 386.865,253.047 386.795,252.247 386.044 C 251.515 385.357,248.162 384.021,247.127 384.004 C 246.977 384.002,246.745 384.342,246.612 384.761 C 246.385 385.478,244.691 385.919,241.800 386.015 C 240.889 386.045,238.519 383.485,238.143 382.064 C 237.670 380.278,240.841 373.600,242.161 373.600 C 243.133 373.600,244.305 375.436,245.157 378.295 C 247.882 387.439,253.967 376.941,253.016 364.736 C 252.375 356.518,257.060 346.657,259.950 350.140 M316.382 352.019 C 315.170 353.317,315.086 353.698,314.516 360.515 C 314.271 363.444,314.302 364.275,314.638 363.815 C 314.886 363.477,315.293 363.200,315.544 363.200 C 315.795 363.200,316.000 363.020,316.000 362.800 C 316.000 362.580,316.188 362.400,316.417 362.400 C 316.875 362.400,320.647 359.696,321.808 358.535 C 322.209 358.134,322.912 357.619,323.369 357.391 C 324.614 356.770,324.373 355.929,322.800 355.406 C 321.634 355.019,321.266 354.595,320.600 352.875 C 319.608 350.312,318.236 350.034,316.382 352.019 M122.263 356.180 C 122.118 356.557,122.000 359.371,122.000 362.433 L 122.000 368.000 123.325 368.000 C 124.054 368.000,126.247 368.540,128.200 369.200 C 139.581 373.047,150.054 363.101,139.800 358.184 C 135.417 356.082,122.852 354.646,122.263 356.180 " stroke="none" fill="#2f3e51" fill-rule="evenodd"></path>
    <path id="path2" d="M188.400 0.246 C 166.617 1.769,146.224 6.236,127.100 13.673 L 122.000 15.656 122.000 64.558 L 122.000 113.459 124.900 112.480 C 135.051 109.052,146.093 113.936,145.544 121.611 C 145.488 122.387,145.592 123.264,145.774 123.559 C 145.957 123.854,146.146 124.571,146.196 125.153 C 146.245 125.735,146.411 126.604,146.564 127.086 C 146.716 127.567,146.633 128.735,146.378 129.680 C 146.124 130.626,145.979 131.426,146.058 131.458 C 146.136 131.490,145.857 131.895,145.438 132.358 C 145.019 132.821,144.839 133.203,145.038 133.206 C 145.237 133.209,145.171 133.358,144.891 133.536 C 144.130 134.018,143.423 137.600,144.088 137.600 C 144.296 137.600,144.393 137.821,144.303 138.091 C 144.104 138.687,144.296 138.930,147.646 142.321 C 150.065 144.770,151.647 147.127,153.718 151.366 C 154.491 152.950,154.605 154.370,154.847 165.500 C 154.896 167.755,155.096 169.600,155.292 169.600 C 155.487 169.600,155.543 169.768,155.416 169.974 C 155.289 170.180,155.553 171.003,156.002 171.804 C 156.457 172.614,156.594 173.132,156.310 172.971 C 155.901 172.740,155.899 172.790,156.300 173.221 C 156.575 173.518,156.800 174.069,156.800 174.447 C 156.800 174.824,156.988 175.196,157.217 175.272 C 157.446 175.349,157.684 175.859,157.747 176.406 C 157.809 176.953,158.071 177.907,158.330 178.526 C 158.588 179.145,158.800 179.732,158.800 179.831 C 158.800 181.645,162.688 184.926,165.870 185.797 C 167.017 186.111,173.293 185.006,177.141 183.813 C 184.087 181.659,187.536 181.526,196.000 183.083 C 201.622 184.118,206.940 184.151,214.000 183.196 C 215.430 183.003,217.950 182.747,219.600 182.628 C 221.250 182.508,225.210 182.196,228.400 181.934 C 231.590 181.672,235.280 181.500,236.600 181.551 C 239.145 181.650,239.785 181.702,246.400 182.347 C 248.710 182.573,256.855 182.856,264.501 182.977 L 278.402 183.198 278.301 99.513 L 278.200 15.829 275.000 14.478 C 250.964 4.336,214.835 -1.601,188.400 0.246 M99.854 26.813 C 44.616 59.170,7.422 116.170,1.203 178.000 C 0.971 180.310,0.705 182.920,0.612 183.800 C 0.519 184.680,0.539 185.172,0.656 184.894 C 0.818 184.513,1.774 184.449,4.535 184.632 C 6.551 184.765,15.220 184.555,23.800 184.165 C 32.380 183.775,43.090 183.433,47.600 183.405 C 57.377 183.343,58.461 183.216,66.400 181.196 C 67.170 181.000,70.050 180.647,72.800 180.412 C 82.962 179.545,88.653 178.508,94.000 176.552 C 101.925 173.653,102.374 173.459,103.723 172.344 L 105.000 171.288 105.104 97.644 C 105.162 57.140,105.072 24.007,104.904 24.017 C 104.737 24.026,102.464 25.284,99.854 26.813 M295.200 104.000 C 295.200 147.780,295.245 183.622,295.300 183.648 C 295.633 183.808,308.090 184.388,319.400 184.769 C 326.660 185.014,335.210 185.407,338.400 185.642 C 341.590 185.878,347.710 186.223,352.000 186.411 C 363.271 186.904,368.142 187.263,368.622 187.639 C 369.231 188.114,382.906 188.796,391.900 188.798 L 399.600 188.800 399.600 187.189 C 399.600 186.302,399.328 182.927,398.995 179.689 C 392.836 119.714,359.934 65.636,309.554 32.680 C 303.538 28.745,296.199 24.400,295.568 24.400 C 295.345 24.400,295.200 55.763,295.200 104.000 M278.000 312.400 C 278.000 312.633,276.667 312.800,274.800 312.800 C 272.199 312.800,271.600 312.914,271.600 313.410 C 271.600 314.276,273.269 314.800,276.026 314.800 L 278.400 314.800 278.400 313.400 C 278.400 312.630,278.310 312.000,278.200 312.000 C 278.090 312.000,278.000 312.180,278.000 312.400 " stroke="none" fill="#648caf" fill-rule="evenodd"></path>
    <path id="path3" d="M126.514 112.000 C 121.654 113.274,121.999 112.669,122.009 119.914 L 122.019 126.200 125.909 128.108 C 130.950 130.580,132.227 130.547,136.600 127.829 C 137.700 127.145,139.590 126.088,140.800 125.479 C 145.835 122.945,146.407 122.029,145.020 118.709 C 142.479 112.629,134.774 109.836,126.514 112.000 M125.908 146.121 L 122.017 148.200 122.008 154.417 L 122.000 160.634 123.777 161.109 C 129.512 162.643,129.652 166.403,124.100 169.729 L 122.000 170.987 122.000 175.033 L 122.000 179.079 125.900 177.052 C 130.486 174.668,132.869 174.426,136.973 175.924 C 140.671 177.275,145.962 180.705,145.326 181.340 C 145.183 181.483,145.377 181.600,145.757 181.600 C 146.137 181.600,146.337 181.778,146.203 181.996 C 146.068 182.213,146.230 182.978,146.562 183.696 C 146.894 184.413,147.500 186.350,147.908 188.000 L 148.650 191.000 213.525 191.101 L 278.400 191.202 278.400 187.264 L 278.400 183.326 271.500 183.064 C 267.705 182.920,261.180 182.794,257.000 182.784 C 252.820 182.773,248.050 182.598,246.400 182.394 C 238.319 181.396,235.881 181.334,228.400 181.941 C 225.210 182.199,221.250 182.508,219.600 182.628 C 217.950 182.747,215.430 183.003,214.000 183.196 C 206.940 184.151,201.622 184.118,196.000 183.083 C 187.536 181.526,184.087 181.659,177.141 183.813 C 173.293 185.006,167.017 186.111,165.870 185.797 C 162.688 184.926,158.800 181.645,158.800 179.831 C 158.800 179.732,158.588 179.145,158.330 178.526 C 158.071 177.907,157.809 176.953,157.747 176.406 C 157.684 175.859,157.446 175.349,157.217 175.272 C 156.988 175.196,156.800 174.824,156.800 174.447 C 156.800 174.069,156.575 173.518,156.300 173.221 C 155.899 172.790,155.901 172.740,156.310 172.971 C 156.594 173.132,156.457 172.614,156.002 171.804 C 155.553 171.003,155.282 170.191,155.401 169.998 C 155.520 169.806,155.253 169.676,154.809 169.709 C 154.364 169.743,154.000 169.942,154.000 170.152 C 154.000 170.362,153.894 170.427,153.764 170.297 C 153.634 170.167,152.869 170.285,152.064 170.559 C 149.151 171.549,140.800 171.132,140.800 169.996 C 140.800 169.826,140.332 169.569,139.760 169.426 C 135.266 168.298,134.108 164.033,137.800 162.210 C 139.690 161.277,152.479 160.786,153.979 161.589 C 155.217 162.252,154.908 153.873,153.591 151.071 C 152.500 148.749,152.082 148.520,148.800 148.449 C 142.476 148.312,140.098 147.799,135.516 145.583 C 131.340 143.564,130.618 143.604,125.908 146.121 M104.800 170.780 C 104.800 171.679,102.914 173.168,100.600 174.097 C 90.369 178.203,85.368 179.339,72.800 180.412 C 70.050 180.647,67.170 181.000,66.400 181.196 C 58.461 183.216,57.377 183.343,47.600 183.405 C 43.090 183.433,32.380 183.775,23.800 184.165 C 15.220 184.555,6.539 184.764,4.509 184.630 L 0.819 184.385 0.511 185.493 C -0.294 188.386,0.269 217.694,1.157 219.130 C 1.328 219.408,3.365 219.862,5.830 220.172 C 13.443 221.129,14.532 221.993,16.627 228.730 C 20.057 239.765,20.730 240.490,28.000 240.966 C 33.632 241.334,35.709 242.656,36.224 246.200 C 36.469 247.880,37.599 251.716,37.987 252.184 C 38.210 252.453,38.275 252.792,38.130 252.937 C 37.985 253.082,38.059 253.200,38.294 253.200 C 38.529 253.200,38.897 253.695,39.112 254.300 C 39.642 255.794,42.491 258.947,44.312 260.054 C 45.130 260.552,46.070 261.253,46.400 261.612 C 47.307 262.599,50.567 264.400,51.446 264.400 C 54.904 264.400,56.432 250.827,53.826 243.272 C 50.613 233.960,48.743 228.859,48.189 227.900 C 47.840 227.295,47.700 226.791,47.877 226.781 C 48.055 226.770,47.210 226.241,46.000 225.606 C 43.240 224.156,41.364 222.559,42.083 222.271 C 42.403 222.142,42.324 222.051,41.876 222.032 C 41.478 222.014,41.255 221.835,41.379 221.634 C 41.503 221.433,41.413 221.204,41.178 221.126 C 40.944 221.048,40.725 219.907,40.693 218.592 C 40.594 214.530,40.844 213.069,42.047 210.705 C 42.241 210.323,42.400 209.821,42.400 209.589 C 42.400 208.476,44.263 206.778,46.168 206.154 C 49.117 205.189,51.606 203.866,53.591 202.207 C 56.852 199.483,58.273 199.068,59.569 200.458 C 61.492 202.523,59.743 208.680,56.222 212.248 C 52.027 216.497,51.511 217.190,51.771 218.226 C 51.910 218.781,51.840 219.200,51.608 219.200 C 50.964 219.200,51.127 219.987,52.094 221.553 C 52.777 222.658,53.021 222.833,53.125 222.293 C 53.246 221.664,53.344 221.686,54.017 222.493 C 54.433 222.992,54.779 223.205,54.787 222.967 C 54.795 222.691,55.560 222.596,56.900 222.704 C 67.619 223.573,76.747 217.701,77.370 209.534 C 77.650 205.862,78.603 202.211,79.596 201.000 C 79.957 200.560,80.558 199.708,80.931 199.106 C 81.305 198.505,82.062 197.899,82.614 197.761 C 83.761 197.473,87.935 195.638,92.575 193.383 C 97.020 191.223,99.725 191.032,101.672 192.741 C 102.780 193.715,103.177 193.869,103.585 193.485 C 104.000 193.094,104.059 193.232,103.887 194.198 L 103.673 195.397 104.437 194.454 C 105.164 193.555,105.707 170.000,105.000 170.000 C 104.890 170.000,104.800 170.351,104.800 170.780 M295.200 206.398 L 295.200 229.139 296.480 228.500 C 301.124 226.183,313.673 227.918,318.800 231.586 C 326.457 237.063,327.493 237.546,333.800 238.571 C 335.780 238.893,337.940 239.278,338.600 239.426 C 339.928 239.725,346.445 242.661,346.785 243.114 C 348.202 244.999,353.938 245.312,358.818 243.771 C 362.959 242.462,367.104 242.123,374.400 242.497 C 384.050 242.991,388.055 243.742,394.033 246.176 C 394.411 246.330,394.686 246.225,394.713 245.917 C 394.739 245.633,395.036 244.320,395.374 243.000 C 398.499 230.779,401.170 197.055,399.611 189.500 C 399.480 188.862,398.768 188.799,391.633 188.792 C 382.368 188.783,369.731 188.154,368.600 187.645 C 367.617 187.203,356.054 186.391,350.600 186.381 C 348.400 186.377,345.340 186.206,343.800 186.001 C 342.260 185.795,335.330 185.443,328.400 185.217 C 316.673 184.835,302.188 184.183,297.300 183.815 L 295.200 183.658 295.200 206.398 M153.892 210.700 C 154.593 212.773,156.008 215.187,156.526 215.195 C 156.705 215.198,157.296 215.728,157.839 216.374 L 158.827 217.548 160.780 216.534 C 161.855 215.977,164.114 214.189,165.802 212.560 C 167.489 210.932,169.079 209.587,169.335 209.572 C 169.591 209.556,169.440 209.389,169.000 209.200 C 168.560 209.011,164.836 208.844,160.724 208.828 L 153.249 208.800 153.892 210.700 M189.334 209.054 C 189.007 209.187,188.977 209.621,189.231 210.508 C 189.606 211.817,189.435 220.523,189.012 221.625 C 188.806 222.161,189.244 222.249,192.086 222.242 C 193.909 222.237,197.560 222.316,200.200 222.417 C 207.557 222.698,210.039 221.197,213.628 214.300 C 214.515 212.595,215.399 211.200,215.593 211.200 C 215.787 211.200,216.061 210.837,216.202 210.394 C 216.343 209.951,216.612 209.684,216.801 209.801 C 216.990 209.917,217.246 209.849,217.370 209.648 C 217.850 208.871,191.165 208.305,189.334 209.054 M224.400 209.858 C 228.060 211.989,231.316 212.477,235.013 211.446 C 237.490 210.755,241.115 209.419,241.468 209.065 C 241.614 208.919,237.428 208.802,232.167 208.805 L 222.600 208.810 224.400 209.858 M246.685 209.700 C 248.692 211.890,249.507 214.400,250.617 221.800 C 251.142 225.303,251.190 226.730,250.850 228.800 C 249.749 235.512,249.997 237.067,252.458 238.888 C 255.079 240.829,257.001 240.494,259.035 237.742 C 265.191 229.413,267.849 228.817,276.700 233.780 L 278.400 234.733 278.400 221.767 L 278.400 208.800 262.130 208.800 L 245.861 208.800 246.685 209.700 M27.340 213.933 C 29.680 216.519,31.143 229.246,29.292 230.914 C 27.864 232.201,23.271 231.395,24.580 230.087 C 24.702 229.965,24.487 229.517,24.102 229.092 C 23.217 228.114,22.866 220.126,23.570 216.979 C 24.296 213.733,25.949 212.397,27.340 213.933 M184.200 223.200 C 183.802 223.640,183.151 224.000,182.754 224.000 C 181.498 224.000,175.772 229.374,175.385 230.916 C 174.130 235.919,180.319 239.641,187.068 237.941 C 189.492 237.331,190.196 235.809,189.805 232.022 C 189.657 230.580,189.481 228.770,189.414 228.000 C 189.007 223.302,186.335 220.841,184.200 223.200 M385.447 230.444 C 388.998 232.117,389.731 234.835,387.000 236.200 C 384.630 237.385,378.353 237.352,376.470 236.145 C 370.390 232.247,378.434 227.139,385.447 230.444 M10.701 263.832 C 10.162 264.371,17.051 282.000,17.800 282.000 C 17.899 282.000,17.787 281.505,17.551 280.900 C 17.279 280.201,17.219 278.305,17.388 275.694 C 17.690 271.043,17.195 267.810,15.939 266.213 C 14.669 264.599,11.414 263.119,10.701 263.832 M50.852 292.224 C 48.968 294.620,48.854 305.031,50.637 311.877 C 51.312 314.469,51.357 316.743,50.763 318.274 C 50.523 318.893,50.242 319.846,50.139 320.391 C 50.036 320.937,49.813 321.477,49.645 321.591 C 48.724 322.219,47.045 328.363,47.546 329.271 C 48.477 330.957,52.099 334.726,51.652 333.543 C 50.882 331.505,52.057 329.217,54.561 327.877 C 56.510 326.834,72.487 326.602,76.875 327.553 C 82.870 328.852,85.007 333.176,82.202 338.328 C 79.524 343.244,76.418 344.531,67.700 344.336 C 64.345 344.261,61.615 344.290,61.634 344.400 C 61.652 344.510,62.391 345.223,63.276 345.984 L 64.884 347.369 69.142 347.274 C 76.898 347.102,80.189 345.912,83.650 342.028 C 88.557 336.522,88.241 328.657,83.000 325.861 C 80.455 324.504,79.159 324.289,71.600 323.970 C 56.081 323.315,51.802 319.831,54.635 310.154 C 56.527 303.691,56.819 302.312,56.860 299.644 C 56.967 292.799,53.636 288.686,50.852 292.224 M264.000 300.593 C 258.300 302.515,254.125 302.798,248.537 301.641 C 243.400 300.578,241.016 300.581,238.147 301.654 C 233.385 303.436,231.855 303.685,224.000 303.959 C 213.291 304.332,212.000 305.176,212.000 311.805 C 212.000 321.170,215.504 327.017,222.073 328.611 C 223.683 329.001,225.720 329.574,226.600 329.884 C 229.862 331.032,231.664 331.172,234.600 330.502 C 236.566 330.054,239.546 329.854,244.600 329.832 C 248.565 329.814,252.070 329.624,252.400 329.408 C 252.736 329.189,256.606 328.997,261.200 328.971 C 265.710 328.947,270.570 328.711,272.000 328.448 C 273.741 328.128,275.228 328.090,276.500 328.333 L 278.400 328.697 278.400 321.748 L 278.400 314.800 276.026 314.800 C 273.269 314.800,271.600 314.276,271.600 313.410 C 271.600 312.914,272.198 312.800,274.792 312.800 C 278.660 312.800,278.477 313.173,278.315 305.616 L 278.200 300.232 276.800 299.939 C 272.023 298.941,268.342 299.129,264.000 300.593 M304.200 302.812 C 302.440 303.208,299.695 303.548,298.100 303.566 L 295.200 303.600 295.200 323.757 L 295.200 343.915 296.900 343.535 C 301.049 342.608,302.876 338.856,301.347 334.402 C 300.501 331.938,300.380 331.200,300.823 331.200 C 301.030 331.200,301.200 330.939,301.200 330.620 C 301.200 330.021,303.195 328.363,304.600 327.795 C 305.040 327.617,308.910 327.343,313.200 327.186 C 329.685 326.582,334.629 323.598,335.118 313.958 C 335.457 307.277,332.892 305.010,324.092 304.213 C 322.493 304.069,319.455 303.511,317.341 302.975 C 312.760 301.813,308.848 301.764,304.200 302.812 M231.811 339.808 C 227.260 342.846,228.879 354.408,234.017 355.560 C 238.004 356.455,246.686 353.266,248.750 350.150 C 251.519 345.969,250.334 340.074,246.583 339.370 C 242.911 338.682,233.061 338.973,231.811 339.808 M227.000 390.946 C 222.629 392.108,218.513 393.788,217.308 394.901 C 216.324 395.809,214.640 398.796,215.106 398.806 C 215.268 398.809,215.142 398.975,214.827 399.175 C 212.527 400.630,236.678 396.979,248.369 394.103 C 256.716 392.050,256.567 391.741,247.117 391.494 C 242.873 391.384,238.774 391.093,238.009 390.848 C 235.019 389.892,230.823 389.930,227.000 390.946 " stroke="none" fill="#495363" fill-rule="evenodd"></path>
    <path id="path4" d="M144.000 123.780 C 143.450 124.093,142.010 124.852,140.800 125.467 C 139.590 126.082,137.700 127.145,136.600 127.829 C 132.257 130.528,130.762 130.581,126.135 128.200 C 124.211 127.210,122.493 126.400,122.318 126.400 C 122.143 126.400,122.000 131.260,122.000 137.200 C 122.000 143.140,122.119 148.000,122.264 148.000 C 122.409 148.000,124.198 147.100,126.238 146.000 C 130.712 143.588,131.333 143.560,135.516 145.583 C 139.587 147.552,140.927 147.916,145.200 148.214 C 147.070 148.345,149.440 148.509,150.466 148.579 L 152.332 148.707 151.312 146.854 C 150.750 145.834,149.101 143.795,147.646 142.321 C 144.296 138.930,144.104 138.687,144.303 138.091 C 144.393 137.821,144.296 137.600,144.088 137.600 C 143.423 137.600,144.130 134.018,144.891 133.536 C 145.171 133.358,145.237 133.209,145.038 133.206 C 144.839 133.203,145.019 132.821,145.438 132.358 C 145.857 131.895,146.160 131.400,146.112 131.258 C 146.063 131.116,146.207 130.316,146.432 129.480 C 146.657 128.645,146.716 127.567,146.564 127.086 C 146.411 126.604,146.245 125.735,146.196 125.153 C 146.026 123.158,145.583 122.880,144.000 123.780 M122.000 165.800 C 122.000 168.550,122.094 170.800,122.208 170.800 C 122.322 170.800,123.177 170.328,124.108 169.752 C 129.333 166.515,129.639 163.697,125.000 161.556 C 121.994 160.169,122.000 160.160,122.000 165.800 M139.648 161.633 C 134.139 162.713,134.216 168.034,139.760 169.426 C 140.332 169.569,140.800 169.826,140.800 169.996 C 140.800 171.132,149.151 171.549,152.064 170.559 C 152.869 170.285,153.634 170.167,153.764 170.297 C 153.894 170.427,154.000 170.313,154.000 170.043 C 154.000 169.773,154.180 169.664,154.400 169.800 C 154.867 170.089,154.906 169.680,154.815 165.400 C 154.765 163.043,154.584 162.074,154.127 161.722 C 153.396 161.158,142.413 161.091,139.648 161.633 M24.831 214.059 C 23.039 215.982,22.490 227.311,24.102 229.092 C 24.487 229.517,24.702 229.965,24.580 230.087 C 24.058 230.609,26.581 232.041,27.583 231.791 C 30.298 231.114,30.771 229.222,29.820 222.841 C 28.550 214.317,27.050 211.677,24.831 214.059 M378.572 229.564 C 373.884 230.730,372.887 233.848,376.470 236.145 C 378.353 237.352,384.630 237.385,387.000 236.200 C 391.896 233.752,384.656 228.051,378.572 229.564 M56.600 327.144 C 49.702 328.993,49.723 332.226,56.678 339.528 L 61.155 344.229 67.479 344.346 C 76.464 344.512,79.512 343.266,82.202 338.328 C 84.966 333.251,82.880 328.876,77.085 327.601 C 74.585 327.051,58.303 326.688,56.600 327.144 " stroke="none" fill="#9b7c69" fill-rule="evenodd"></path>
  </g>
</svg>